<svg width="128" height="128" viewBox="0 0 128 128" fill="none" xmlns="http://www.w3.org/2000/svg">
<g clip-path="url(#clip0_99_2)">
<path d="M110 0C119.941 0 128 8.05887 128 18V110C128 119.941 119.941 128 110 128H18C8.05887 128 0 119.941 0 110V18C0 8.05887 8.05887 0 18 0H110ZM46.6318 67.9121C44.6161 67.9121 42.7603 68.2798 41.0645 69.0156C39.3686 69.7196 38.0083 70.8878 36.9844 72.5195C35.9924 74.1195 35.4961 76.2641 35.4961 78.9521V92.248C35.4961 94.9359 35.9924 97.0956 36.9844 98.7275C38.0084 100.328 39.3685 101.496 41.0645 102.232C42.7603 102.936 44.6002 103.288 46.584 103.288C48.824 103.288 50.8081 102.904 52.5361 102.136C54.264 101.368 55.6084 100.264 56.5684 98.8242C57.5603 97.3843 58.0556 95.7041 58.0557 93.7842C58.0557 92.5682 57.8001 91.7519 57.2881 91.3359C56.7761 90.9199 55.9757 90.7119 54.8877 90.7119C54.0561 90.7119 53.3522 90.8557 52.7764 91.1436C52.2005 91.3995 51.8805 91.9119 51.8164 92.6797C51.7524 93.1915 51.6563 93.7357 51.5283 94.3115C51.4323 94.8875 51.2243 95.4482 50.9043 95.9922C50.6163 96.5042 50.1517 96.9361 49.5117 97.2881C48.8717 97.64 48.0078 97.8164 46.9199 97.8164C45.2559 97.8164 43.9761 97.3677 43.0801 96.4717C42.2162 95.5757 41.7842 94.1679 41.7842 92.248V78.9521C41.7842 77.0643 42.2162 75.6724 43.0801 74.7764C43.9441 73.8484 45.1922 73.3838 46.8242 73.3838C47.976 73.3838 48.8718 73.5602 49.5117 73.9121C50.1837 74.2641 50.68 74.696 51 75.208C51.32 75.72 51.528 76.248 51.624 76.792C51.752 77.3039 51.8164 77.7518 51.8164 78.1357C51.8484 78.8396 52.1518 79.3519 52.7275 79.6719C53.3354 79.9598 54.0717 80.1035 54.9355 80.1035C55.9915 80.1035 56.7761 79.9123 57.2881 79.5283C57.8001 79.1123 58.0556 78.2801 58.0557 77.0322C58.0557 75.1442 57.5604 73.5276 56.5684 72.1836C55.6084 70.8397 54.264 69.8004 52.5361 69.0645C50.8401 68.2965 48.8718 67.9121 46.6318 67.9121ZM80.584 67.9121C78.568 67.9121 76.7116 68.2796 75.0156 69.0156C73.3519 69.7196 72.0083 70.8878 70.9844 72.5195C69.9924 74.1195 69.4961 76.2641 69.4961 78.9521V92.248C69.4961 94.9359 69.9924 97.0956 70.9844 98.7275C72.0084 100.328 73.3685 101.496 75.0645 102.232C76.7603 102.936 78.6646 103.288 80.7764 103.288C82.8882 103.288 84.7924 102.936 86.4883 102.232C88.2162 101.496 89.5764 100.328 90.5684 98.7275C91.5602 97.0956 92.0557 94.9357 92.0557 92.248V86.6318C92.0556 86.0561 91.8801 85.5763 91.5283 85.1924C91.2083 84.7764 90.7279 84.5684 90.0879 84.5684H81.9277C81.3199 84.5684 80.8402 84.8241 80.4883 85.3359C80.1683 85.8478 80.0079 86.4078 80.0078 87.0156C80.0078 87.6236 80.1683 88.1843 80.4883 88.6963C80.8402 89.208 81.32 89.4638 81.9277 89.4639H85.8164V92.248C85.8164 94.136 85.3677 95.5437 84.4717 96.4717C83.5758 97.3676 82.3442 97.8163 80.7764 97.8164C79.2084 97.8164 77.9761 97.3677 77.0801 96.4717C76.2162 95.5437 75.7842 94.1359 75.7842 92.248V78.9521C75.7842 77.0642 76.2162 75.6724 77.0801 74.7764C77.9761 73.8484 79.2084 73.3838 80.7764 73.3838C82.1838 73.3838 83.2236 73.6238 83.8955 74.1035C84.5994 74.5835 85.0799 75.1918 85.3359 75.9277C85.6239 76.6317 85.7844 77.3678 85.8164 78.1357C85.8484 78.8717 86.1684 79.3839 86.7764 79.6719C87.3842 79.9597 88.1039 80.1035 88.9355 80.1035C89.9915 80.1035 90.7761 79.9123 91.2881 79.5283C91.8001 79.1123 92.0557 78.3119 92.0557 77.1279C92.0557 75.208 91.5604 73.5596 90.5684 72.1836C89.5764 70.8077 88.2162 69.7516 86.4883 69.0156C84.7923 68.2796 82.824 67.9121 80.584 67.9121ZM38.6162 26.9121C37.9442 26.9121 37.3201 27.0884 36.7441 27.4404C36.1683 27.7604 35.88 28.2559 35.8799 28.9277V60.0322C35.88 60.576 36.1199 61.0399 36.5996 61.4238C37.1116 61.8078 37.7842 62 38.6162 62H48.8398C50.6318 62 52.2485 61.68 53.6885 61.04C55.1602 60.3681 56.3116 59.2959 57.1436 57.8242C58.0075 56.3203 58.4404 54.3201 58.4404 51.8242V50.8164C58.4404 49.2164 58.2324 47.9197 57.8164 46.9277C57.4004 45.9038 56.8238 45.0884 56.0879 44.4805C55.3519 43.8405 54.488 43.3442 53.4961 42.9922C54.7441 42.4482 55.7357 41.5358 56.4717 40.2559C57.2076 38.9439 57.5761 37.3122 57.5762 35.3604C57.5762 33.0884 57.1116 31.3439 56.1836 30.1279C55.2556 28.9121 54.0559 28.0798 52.584 27.6318C51.112 27.1518 49.5597 26.9121 47.9277 26.9121H38.6162ZM89.9443 26.9121C89.4323 26.9121 89.048 27.024 88.792 27.248C88.536 27.44 88.2804 27.7442 88.0244 28.1602L80.7285 42.0322L73.3838 28.1602C73.1598 27.7442 72.92 27.44 72.6641 27.248C72.4081 27.024 72.0237 26.9121 71.5117 26.9121C70.9359 26.9121 70.3282 27.0242 69.6885 27.248C69.0485 27.472 68.5037 27.7762 68.0557 28.1602C67.6079 28.5441 67.3838 28.9921 67.3838 29.5039V29.792C67.4158 29.888 67.4643 29.9999 67.5283 30.1279L77.4639 47.3115C77.5598 47.4714 77.6083 47.6797 77.6084 47.9355V59.9844C77.6085 60.6562 77.9285 61.1676 78.5684 61.5195C79.2403 61.8395 79.9605 62 80.7285 62C81.4963 61.9999 82.2 61.8395 82.8398 61.5195C83.5117 61.1676 83.8475 60.6562 83.8477 59.9844V47.9355C83.8477 47.6797 83.8962 47.4714 83.9922 47.3115L93.9277 30.1279C93.9917 29.9999 94.0244 29.888 94.0244 29.792C94.0564 29.664 94.0723 29.5679 94.0723 29.5039C94.0722 28.9919 93.8315 28.5441 93.3516 28.1602C92.9036 27.7762 92.3596 27.472 91.7197 27.248C91.1119 27.0241 90.5202 26.9121 89.9443 26.9121ZM47.4961 45.4404C48.968 45.4404 50.1202 45.8238 50.9521 46.5918C51.7841 47.3278 52.2002 48.6403 52.2002 50.5283V51.2959C52.2002 53.1199 51.7841 54.4483 50.9521 55.2803C50.1202 56.1122 48.968 56.5283 47.4961 56.5283H42.1201V45.4404H47.4961ZM47.4482 32.3838C48.2481 32.3838 48.9358 32.5443 49.5117 32.8643C50.0877 33.1843 50.5364 33.6479 50.8564 34.2559C51.1764 34.8318 51.3359 35.5521 51.3359 36.416C51.3359 37.6319 51.0159 38.6236 50.376 39.3916C49.768 40.1596 48.808 40.5439 47.4961 40.5439H42.1201V32.3838H47.4482Z" fill="black"/>
</g>
<defs>
<clipPath id="clip0_99_2">
<rect width="128" height="128" fill="white"/>
</clipPath>
</defs>
</svg>
